<?xml version="1.0" encoding="UTF-8" standalone="no"?>
<!-- Created with Inkscape (http://www.inkscape.org/) -->

<svg
   xmlns:dc="http://purl.org/dc/elements/1.1/"
   xmlns:cc="http://creativecommons.org/ns#"
   xmlns:rdf="http://www.w3.org/1999/02/22-rdf-syntax-ns#"
   xmlns:svg="http://www.w3.org/2000/svg"
   xmlns="http://www.w3.org/2000/svg"
   xmlns:sodipodi="http://sodipodi.sourceforge.net/DTD/sodipodi-0.dtd"
   xmlns:inkscape="http://www.inkscape.org/namespaces/inkscape"
   width="210mm"
   height="297mm"
   viewBox="0 0 210 297"
   version="1.1"
   id="svg2458"
   inkscape:version="0.92.2 5c3e80d, 2017-08-06"
   sodipodi:docname="Hand_thumb_middle.svg">
  <defs
     id="defs2452" />
  <sodipodi:namedview
     id="base"
     pagecolor="#ffffff"
     bordercolor="#666666"
     borderopacity="1.0"
     inkscape:pageopacity="0.0"
     inkscape:pageshadow="2"
     inkscape:zoom="0.35"
     inkscape:cx="-114.28571"
     inkscape:cy="560"
     inkscape:document-units="mm"
     inkscape:current-layer="layer1"
     showgrid="false"
     inkscape:window-width="1440"
     inkscape:window-height="851"
     inkscape:window-x="0"
     inkscape:window-y="1"
     inkscape:window-maximized="1" />
  <metadata
     id="metadata2455">
    <rdf:RDF>
      <cc:Work
         rdf:about="">
        <dc:format>image/svg+xml</dc:format>
        <dc:type
           rdf:resource="http://purl.org/dc/dcmitype/StillImage" />
        <dc:title></dc:title>
      </cc:Work>
    </rdf:RDF>
  </metadata>
  <g
     inkscape:label="Layer 1"
     inkscape:groupmode="layer"
     id="layer1">
    <g
       transform="matrix(0.59385384,0,0,0.57215898,182.34255,107.37597)"
       id="g1004">
      <path
         sodipodi:nodetypes="ccsccccccccccccccccccccccccccccccccccccccc"
         inkscape:connector-curvature="0"
         id="path970"
         d="m -230.11906,264.39311 c 1.90683,-6.7865 3.75488,-13.98446 6.1472,-17.37251 0.88719,0.0993 4.41193,-26.12863 3.4745,-34.74504 -0.97583,-8.96933 6.87882,-50.44015 6.41447,-50.24667 -0.56965,-0.11393 1.45022,-37.55533 1.87089,-38.21954 3.74626,-13.05363 -13.13111,-30.376269 -13.36348,-29.666923 -5.05392,-6.976886 -8.66514,-16.907232 -15.50163,-20.312483 -6.6918,-15.227925 -2.96549,-12.061398 -4.07111,-17.010755 2.02387,-9.584441 1.00781,-14.081832 0.86387,-19.337902 -1.2242,-7.415714 0.18085,-11.450979 0.53454,-16.837979 0.9898,-3.860493 1.0704,-7.039088 1.06908,-10.156242 -0.30421,-7.2380225 0.10219,-12.3441904 0.80181,-16.5707101 4.90158,-2.9660929 10.69152,-3.9905349 16.60313,0.8638772 8.8149,7.4094716 8.88903,18.6656069 7.98567,32.0102739 -0.0394,8.168905 -1.55165,8.003058 1.80881,14.510836 1.67353,4.321 1.37757,5.096913 1.93296,7.405265 1.87089,5.759771 3.74177,10.191964 5.61266,10.690781 l 1.60362,1.336347 c -1.36932,-36.590416 1.45803,-34.891933 1.60361,-40.357697 0.79464,-17.5620498 3.9734,-27.120244 8.28536,-32.874152 2.99178,-9.351524 6.88349,-18.34308 13.63075,-26.192413 1.32842,-10.128548 3.87402,-17.670575 7.21627,-23.519719 1.17005,-10.835546 3.8688,-23.42537 8.28536,-24.321527 17.62181,-7.964907 18.68441,11.686906 19.2434,11.225321 2.00536,13.622004 -1.73838,26.094188 -4.54358,38.754081 -3.87761,12.358083 -7.7738,24.727316 -10.42351,36.34865528 -1.00874,10.02362952 1.71255,17.80924572 2.96149,26.47826772 9.10559,-10.62816 19.17149,-26.05780459 26.93081,-29.954613 12.03863,-6.0580099 19.29257,3.03364929 27.49776,6.8035716 4.47272,-9.5660964 8.94544,-15.7763576 13.418159,-21.3556546 9.051598,-8.979072 15.678295,-20.787194 21.733631,-33.261905 4.46244,-13.116022 10.754214,-23.945377 17.197917,-34.584821 6.353288,-17.372591 22.94023,-11.967279 27.592262,1.322916 4.353914,22.936475 -4.429662,39.8516 -11.717262,57.452381 -9.567997,22.1190067 -20.124154,43.249854 -28.348214,66.712798 3.876669,11.424889 12.672096,26.12895 9.827381,33.072917 10.039971,6.433577 19.750174,14.515995 30.238095,18.709821 30.0394699,11.392406 17.8419551,30.417476 8.315476,49.136906 -3.784866,6.40008 -7.236752,14.46505 -10.016369,25.89137 -5.714067,13.75379 -12.322821,27.37976 -21.544643,40.63244 -4.392419,14.65443 -10.089455,27.80353 -20.977678,34.9628 l -21.355655,27.02529"
         style="fill:none;stroke:#000000;stroke-width:1;stroke-linecap:butt;stroke-linejoin:miter;stroke-miterlimit:4;stroke-dasharray:none;stroke-opacity:1" />
      <path
         sodipodi:nodetypes="cc"
         inkscape:connector-curvature="0"
         id="path972"
         d="m -206.33207,60.733736 c 2.56143,17.408077 -3.84374,41.989434 -5.87993,63.075614"
         style="fill:none;stroke:#000000;stroke-width:0.26458332px;stroke-linecap:butt;stroke-linejoin:miter;stroke-opacity:1" />
      <path
         sodipodi:nodetypes="cc"
         inkscape:connector-curvature="0"
         id="path974"
         d="m -160.07292,26.274553 c -28.1433,46.612559 -35.95013,44.34042 -43.27827,59.814732"
         style="fill:none;stroke:#000000;stroke-width:0.26458332px;stroke-linecap:butt;stroke-linejoin:miter;stroke-opacity:1" />
      <path
         sodipodi:nodetypes="cc"
         inkscape:connector-curvature="0"
         id="path976"
         d="m -139.85119,63.788689 c 11.30828,-12.894231 20.1982,-43.327048 34.20684,-60.6651775"
         style="fill:none;stroke:#000000;stroke-width:0.26458332px;stroke-linecap:butt;stroke-linejoin:miter;stroke-opacity:1" />
      <path
         sodipodi:nodetypes="ccc"
         inkscape:connector-curvature="0"
         id="path978"
         d="m -65.767857,39.409227 c -9.970628,22.025766 -20.107349,41.288545 -19.654762,55.656992 -0.832356,24.709441 3.022958,29.396281 15.119048,36.380211"
         style="fill:none;stroke:#000000;stroke-width:0.26458332px;stroke-linecap:butt;stroke-linejoin:miter;stroke-opacity:1" />
      <path
         sodipodi:nodetypes="ccc"
         inkscape:connector-curvature="0"
         id="path980"
         d="m -55.940475,72.482143 c -4.134479,2.702046 -8.466762,5.997506 -12.851191,9.449403 -5.411352,-0.538974 -10.440156,-1.503001 -13.607142,-4.535715"
         style="fill:none;stroke:#000000;stroke-width:0.26458332px;stroke-linecap:butt;stroke-linejoin:miter;stroke-opacity:1" />
      <path
         sodipodi:nodetypes="ccc"
         inkscape:connector-curvature="0"
         id="path982"
         d="m -68.791666,81.931546 c -1.350996,11.843255 -0.234369,23.686514 7.9375,35.529764 -2.931514,7.35391 -5.788083,15.63215 -9.449403,13.98512"
         style="fill:none;stroke:#000000;stroke-width:0.26458332px;stroke-linecap:butt;stroke-linejoin:miter;stroke-opacity:1" />
      <path
         sodipodi:nodetypes="cc"
         inkscape:connector-curvature="0"
         id="path984"
         d="m -60.854166,117.46131 c 3.882717,-9.49011 13.846481,-14.28124 23.056548,-19.654764"
         style="fill:none;stroke:#000000;stroke-width:0.26458332px;stroke-linecap:butt;stroke-linejoin:miter;stroke-opacity:1" />
    </g>
  </g>
</svg>
