<?xml version="1.0" encoding="UTF-8" standalone="no"?>
<!-- Created with Inkscape (http://www.inkscape.org/) -->

<svg
   xmlns:dc="http://purl.org/dc/elements/1.1/"
   xmlns:cc="http://creativecommons.org/ns#"
   xmlns:rdf="http://www.w3.org/1999/02/22-rdf-syntax-ns#"
   xmlns:svg="http://www.w3.org/2000/svg"
   xmlns="http://www.w3.org/2000/svg"
   xmlns:sodipodi="http://sodipodi.sourceforge.net/DTD/sodipodi-0.dtd"
   xmlns:inkscape="http://www.inkscape.org/namespaces/inkscape"
   version="1.1"
   id="svg815"
   width="20.833334in"
   height="18.75in"
   viewBox="0 0 2000 1800"
   sodipodi:docname="glove_rotoscope.jpg.svg"
   inkscape:version="0.92.2 5c3e80d, 2017-08-06">
  <metadata
     id="metadata821">
    <rdf:RDF>
      <cc:Work
         rdf:about="">
        <dc:format>image/svg+xml</dc:format>
        <dc:type
           rdf:resource="http://purl.org/dc/dcmitype/StillImage" />
        <dc:title></dc:title>
      </cc:Work>
    </rdf:RDF>
  </metadata>
  <defs
     id="defs819" />
  <sodipodi:namedview
     pagecolor="#ffffff"
     bordercolor="#666666"
     borderopacity="1"
     objecttolerance="10"
     gridtolerance="10"
     guidetolerance="10"
     inkscape:pageopacity="0"
     inkscape:pageshadow="2"
     inkscape:window-width="1440"
     inkscape:window-height="851"
     id="namedview817"
     showgrid="false"
     units="in"
     showborder="false"
     inkscape:zoom="0.32"
     inkscape:cx="-194.61096"
     inkscape:cy="758.61461"
     inkscape:window-x="0"
     inkscape:window-y="1"
     inkscape:window-maximized="1"
     inkscape:current-layer="svg815" />
  <g
     id="g906"
     transform="translate(-834.375,-84.375)">
    <path
       sodipodi:nodetypes="cccccsccsccccc"
       inkscape:connector-curvature="0"
       id="path829"
       d="M -193.75,1418.75 C -154.44817,1448.4461 -220.98206,998.35353 -237.5,775 -217.77281,503.53064 -178.07203,307.25598 -59.022817,409.70486 14.530768,244.00546 82.940174,228.17334 133.45971,272.44369 c 49.9426,-80.21931 141.20967,-61.53143 136.39514,-3.85073 156.83406,-57.13098 134.39368,46.52203 97.96143,187.67633 C 355.03859,505.7756 299.12381,787.59025 315.625,971.875 336.32939,988.40868 377.7539,959.35809 418.75,931.25 507.27075,550.32366 634.51271,637.50402 619.71906,842.01383 606.50224,1024.7252 405.94285,1360.8453 262.5,1431.25 c -3.24916,87.8346 -7.29688,174.4713 -18.75,250 V 1675 c -153.722104,5.7226 -447.97094,51.5185 -459.375,-26.5625 0.35313,-85.2357 -23.91621,-201.2494 21.875,-229.6875 z"
       style="fill:none;stroke:#000000;stroke-width:3.77952766;stroke-linecap:butt;stroke-linejoin:miter;stroke-miterlimit:4;stroke-dasharray:none;stroke-opacity:1" />
    <path
       sodipodi:nodetypes="cc"
       inkscape:connector-curvature="0"
       id="path831"
       d="M -62.908287,422.98069 C -91.926223,533.58954 -145.51203,657.67371 -146.8965,753.12577"
       style="fill:none;stroke:#000000;stroke-width:0.95867729px;stroke-linecap:butt;stroke-linejoin:miter;stroke-opacity:1" />
    <path
       sodipodi:nodetypes="cc"
       inkscape:connector-curvature="0"
       id="path833"
       d="M 128.78039,276.73339 C 50.040946,354.64873 22.683892,535.16903 -3.1382297,718.75441"
       style="fill:none;stroke:#000000;stroke-width:0.97804075px;stroke-linecap:butt;stroke-linejoin:miter;stroke-opacity:1" />
    <path
       sodipodi:nodetypes="cc"
       inkscape:connector-curvature="0"
       id="path835"
       d="M 262.69209,279.07789 C 177.86357,407.96802 160.71705,564.89221 143.72647,721.88097"
       style="fill:none;stroke:#000000;stroke-width:0.95998824px;stroke-linecap:butt;stroke-linejoin:miter;stroke-opacity:1" />
    <path
       sodipodi:nodetypes="ccc"
       inkscape:connector-curvature="0"
       id="path837"
       d="m -159.3848,1428.0867 c 88.994452,21.8254 221.998702,3.9313 333.84913,5.1288 -27.72872,76.2595 -14.637,154.6682 -7.68879,232.7534"
       style="fill:none;stroke:#000000;stroke-width:0.89261216px;stroke-linecap:butt;stroke-linejoin:miter;stroke-opacity:1" />
    <path
       sodipodi:nodetypes="cc"
       inkscape:connector-curvature="0"
       id="path839"
       d="m 279.7414,1039.0473 c -8.5367,134.5547 -13.00667,270.2722 -89.74721,385.3267"
       style="fill:none;stroke:#000000;stroke-width:0.91375047px;stroke-linecap:butt;stroke-linejoin:miter;stroke-opacity:1" />
    <path
       sodipodi:nodetypes="ccccccccc"
       inkscape:connector-curvature="0"
       id="path841"
       d="M 607.82631,882.55153 C 590.0939,843.49347 501.38751,809.33504 463.95677,845.2887 c 96.66114,39.60922 -68.75774,209.125 -163.76639,147.56075 -46.23324,-3.18538 -79.90859,-284.74573 35.20212,-520.18899 21.22895,-65.05808 26.57058,-96.07782 27.54949,-117.75053 -68.73883,-24.99179 -84.19554,-11.06673 -123.9727,-14.90512 v -1.49051 0 0"
       style="fill:none;stroke:#000000;stroke-width:0.96664798px;stroke-linecap:butt;stroke-linejoin:miter;stroke-opacity:1" />
    <path
       sodipodi:nodetypes="ccc"
       inkscape:connector-curvature="0"
       id="path843"
       d="m 112.26691,304.92134 c 57.11571,-28.73981 85.34726,-2.86479 120.35523,17.50552 v 0"
       style="fill:none;stroke:#000000;stroke-width:0.96641588px;stroke-linecap:butt;stroke-linejoin:miter;stroke-opacity:1" />
    <path
       sodipodi:nodetypes="cc"
       inkscape:connector-curvature="0"
       id="path845"
       d="M 76.598218,347.69606 C 52.7149,325.60807 24.082777,321.56118 -14.471426,336.80197"
       style="fill:none;stroke:#000000;stroke-width:0.89090914px;stroke-linecap:butt;stroke-linejoin:miter;stroke-opacity:1" />
    <path
       sodipodi:nodetypes="cc"
       inkscape:connector-curvature="0"
       id="path847"
       d="m -92.90352,499.28985 c -13.77899,-10.76285 -29.99528,-20.57723 -97.7559,-10.33322"
       style="fill:none;stroke:#000000;stroke-width:0.80467182px;stroke-linecap:butt;stroke-linejoin:miter;stroke-opacity:1" />
  </g>
</svg>
