<?xml version="1.0" encoding="UTF-8" standalone="no"?>
<!-- Created with Inkscape (http://www.inkscape.org/) -->

<svg
   xmlns:dc="http://purl.org/dc/elements/1.1/"
   xmlns:cc="http://creativecommons.org/ns#"
   xmlns:rdf="http://www.w3.org/1999/02/22-rdf-syntax-ns#"
   xmlns:svg="http://www.w3.org/2000/svg"
   xmlns="http://www.w3.org/2000/svg"
   xmlns:sodipodi="http://sodipodi.sourceforge.net/DTD/sodipodi-0.dtd"
   xmlns:inkscape="http://www.inkscape.org/namespaces/inkscape"
   width="210mm"
   height="297mm"
   viewBox="0 0 210 297"
   version="1.1"
   id="svg1205"
   inkscape:version="0.92.2 5c3e80d, 2017-08-06"
   sodipodi:docname="Hand_rest.jpg.svg">
  <defs
     id="defs1199" />
  <sodipodi:namedview
     id="base"
     pagecolor="#ffffff"
     bordercolor="#666666"
     borderopacity="1.0"
     inkscape:pageopacity="0.0"
     inkscape:pageshadow="2"
     inkscape:zoom="0.35"
     inkscape:cx="-114.28571"
     inkscape:cy="560"
     inkscape:document-units="mm"
     inkscape:current-layer="layer1"
     showgrid="false"
     inkscape:window-width="1440"
     inkscape:window-height="851"
     inkscape:window-x="0"
     inkscape:window-y="1"
     inkscape:window-maximized="1" />
  <metadata
     id="metadata1202">
    <rdf:RDF>
      <cc:Work
         rdf:about="">
        <dc:format>image/svg+xml</dc:format>
        <dc:type
           rdf:resource="http://purl.org/dc/dcmitype/StillImage" />
        <dc:title></dc:title>
      </cc:Work>
    </rdf:RDF>
  </metadata>
  <g
     inkscape:label="Layer 1"
     inkscape:groupmode="layer"
     id="layer1">
    <g
       id="g1135"
       transform="matrix(0.49509426,0,0,0.49442932,358.83352,775.90875)">
      <path
         sodipodi:nodetypes="ccccccccccccccccccccccccccccccccccccc"
         inkscape:connector-curvature="0"
         id="path1117"
         d="m -630.22154,-1105.0959 c -0.34339,-37.767 10.07047,-73.9627 9.08717,-111.7187 -2.90131,-9.4351 -7.78997,-18.539 -14.96711,-27.2615 -5.07212,-14.2064 -11.04881,-20.4149 -14.69982,-23.2524 -3.59585,-12.9351 -1.11126,-13.796 -0.8018,-18.9762 2.30635,-8.5526 1.81043,-17.1052 2.13815,-25.6578 3.81383,-11.6171 4.63934,-23.2503 6.41448,-35.5469 7.75126,-6.1314 14.82271,-1.7111 19.77795,4.8108 5.5118,-13.8718 7.07491,-22.9384 15.23434,-40.6249 1.73067,-12.9254 4.41316,-17.6922 7.48356,-24.5888 0.0787,-6.8532 1.1291,-25.75 12.56166,-25.9252 11.95545,-1.8158 16.17494,6.8347 16.03619,21.3816 1.40995,10.1562 -2.08023,21.6488 -3.20725,31.805 4.04855,-10.1956 8.45754,-19.5377 12.29439,-31.0032 0.71224,-18.4952 6.00829,-33.0188 9.88897,-50.2467 19.68416,-9.4253 28.86232,5.8145 28.06331,18.4417 2.21641,14.7574 -0.29674,25.5379 -2.13815,36.8832 -2.62066,15.4769 -5.43176,30.8268 -10.15624,44.9012 0.96445,18.8609 3.35833,38.0792 -1.06907,55.5921 0.7407,5.0709 -0.53232,11.5801 4.81083,13.3635 6.72739,-23.7399 15.80777,-41.9895 24.58882,-60.9375 8.77569,-10.6015 16.87546,-21.6536 23.51971,-33.676 6.57745,-24.7668 15.17697,-41.4041 26.45967,-55.3248 24.90606,-7.5951 25.25236,21.1265 16.83799,52.1176 l -20.84702,57.7302 c -6.52773,19.7945 -12.61445,40.9121 -19.77795,58.7993 -3.66064,15.1776 -4.89011,29.5449 -4.2763,43.2977 0.92222,16.4038 2.86805,26.0128 17.63977,30.4687 13.89802,14.4537 24.5888,13.1218 38.48682,-10.1562 9.84671,-20.3493 19.1697,-30.9815 26.1924,-50.2467 25.44124,-26.139 40.43158,-1.6662 31.80508,17.9071 5.00275,16.7364 8.29661,31.0601 5.61266,36.6159 -15.43088,19.8609 -32.81326,39.0714 -42.22858,60.9375 -3.80162,15.0215 -21.2242,28.9079 -32.60688,43.2976 -16.37,21.7626 -36.27724,30.6673 -59.86838,47.0394 v 0 l -9.62171,13.898"
         style="fill:none;stroke:#000000;stroke-width:1;stroke-linecap:butt;stroke-linejoin:miter;stroke-miterlimit:4;stroke-dasharray:none;stroke-opacity:1" />
      <g
         id="g1128">
        <path
           style="fill:none;stroke:#000000;stroke-width:0.26458332px;stroke-linecap:butt;stroke-linejoin:miter;stroke-opacity:1"
           d="m -623.27252,-1342.6986 c -3.84129,26.0425 1.79674,51.3557 6.94899,76.7064 l 0.26728,30.736"
           id="path1119"
           inkscape:connector-curvature="0"
           sodipodi:nodetypes="ccc" />
        <path
           style="fill:none;stroke:#000000;stroke-width:0.26458332px;stroke-linecap:butt;stroke-linejoin:miter;stroke-opacity:1"
           d="m -575.16402,-1380.6509 c -7.83121,11.4641 -10.95294,35.0382 -13.89801,59.0667 -1.65323,26.568 -5.4002,42.6673 -9.88899,55.0575"
           id="path1121"
           inkscape:connector-curvature="0"
           sodipodi:nodetypes="ccc" />
        <path
           style="fill:none;stroke:#000000;stroke-width:0.26458332px;stroke-linecap:butt;stroke-linejoin:miter;stroke-opacity:1"
           d="m -533.46998,-1292.7191 -4.54358,10.6907"
           id="path1123"
           inkscape:connector-curvature="0" />
      </g>
    </g>
  </g>
</svg>
