<?xml version="1.0" encoding="UTF-8" standalone="no"?>
<!-- Created with Inkscape (http://www.inkscape.org/) -->

<svg
   xmlns:dc="http://purl.org/dc/elements/1.1/"
   xmlns:cc="http://creativecommons.org/ns#"
   xmlns:rdf="http://www.w3.org/1999/02/22-rdf-syntax-ns#"
   xmlns:svg="http://www.w3.org/2000/svg"
   xmlns="http://www.w3.org/2000/svg"
   xmlns:sodipodi="http://sodipodi.sourceforge.net/DTD/sodipodi-0.dtd"
   xmlns:inkscape="http://www.inkscape.org/namespaces/inkscape"
   width="210mm"
   height="297mm"
   viewBox="0 0 210 297"
   version="1.1"
   id="svg1845"
   inkscape:version="0.92.2 5c3e80d, 2017-08-06"
   sodipodi:docname="Hand_thumb_index.svg">
  <defs
     id="defs1839" />
  <sodipodi:namedview
     id="base"
     pagecolor="#ffffff"
     bordercolor="#666666"
     borderopacity="1.0"
     inkscape:pageopacity="0.0"
     inkscape:pageshadow="2"
     inkscape:zoom="0.35"
     inkscape:cx="-114.28571"
     inkscape:cy="560"
     inkscape:document-units="mm"
     inkscape:current-layer="layer1"
     showgrid="false"
     inkscape:window-width="1440"
     inkscape:window-height="851"
     inkscape:window-x="0"
     inkscape:window-y="1"
     inkscape:window-maximized="1" />
  <metadata
     id="metadata1842">
    <rdf:RDF>
      <cc:Work
         rdf:about="">
        <dc:format>image/svg+xml</dc:format>
        <dc:type
           rdf:resource="http://purl.org/dc/dcmitype/StillImage" />
        <dc:title></dc:title>
      </cc:Work>
    </rdf:RDF>
  </metadata>
  <g
     inkscape:label="Layer 1"
     inkscape:groupmode="layer"
     id="layer1">
    <g
       id="g1115"
       transform="matrix(0.557378,0,0,0.53637594,396.14358,484.19391)">
      <g
         id="g1103">
        <g
           id="g1086">
          <path
             sodipodi:nodetypes="ccccccccccccccccccccccccccccccccc"
             inkscape:connector-curvature="0"
             id="path1052"
             d="m -618.19441,-471.39988 c -0.0397,-35.55589 6.68204,-72.66378 6.14721,-108.24417 -2.73558,-13.44104 -9.9719,-19.68091 -16.03619,-27.79602 -1.27705,-8.44023 -10.23,-17.08151 -14.96708,-22.45063 -3.74682,-14.05246 -0.56483,-15.35086 -0.53454,-22.45067 -0.39037,-16.06475 0.9451,-24.65089 2.67269,-31.5378 2.31634,-15.76471 3.5636,-27.44022 5.87994,-24.85605 16.43625,-4.50053 16.11499,8.15479 18.70885,9.35443 5.12014,-14.34853 9.3754,-30.42682 15.76892,-42.22857 3.87041,-18.98232 9.07067,-50.60384 12.02711,-50.78123 23.56061,-6.07551 24.17325,8.73701 22.45065,25.65789 -0.0261,22.67224 -7.04509,45.66859 -9.62172,63.87741 -2.4103,10.71972 1.49442,16.92871 3.7418,24.32152 9.91742,-40.65006 15.29751,-48.8906 20.31246,-54.52297 9.01442,-13.01012 18.67813,-24.76751 22.1834,-44.09948 4.55788,-17.77148 8.66746,-29.16835 16.57069,-29.13237 29.18084,-0.76876 13.24301,39.27852 12.02712,51.31575 l -17.10523,44.90127 c 2.28554,16.89722 -1.29218,32.95683 -3.74179,49.1776 0.46128,9.06545 2.11175,9.80664 3.20725,14.43255 14.78891,-15.87571 29.8451,-30.11622 44.63401,-40.3577 8.19264,1.47356 14.68821,-2.40734 31.53781,19.51067 14.60858,14.55994 11.88573,19.45831 14.96707,29.93419 0.53833,3.08203 2.49873,9.86779 -1.60362,11.75987 6.53317,-2.64731 4.42419,4.05651 14.1653,14.16528 7.48354,11.03997 14.69982,13.06284 22.18336,20.31248 4.03602,12.31629 2.10974,21.98266 -6.68173,28.59784 -13.56993,15.85234 -22.30404,32.67184 -32.60688,49.1776 -11.03809,14.03288 -13.7105,21.53764 -17.63978,33.14142 -7.34749,17.03581 -16.04194,24.14583 -24.05427,29.93416 -11.92921,12.01108 -18.81459,21.50298 -27.2615,34.21052 v 0 0.53453"
             style="fill:none;stroke:#000000;stroke-width:1;stroke-linecap:butt;stroke-linejoin:miter;stroke-miterlimit:4;stroke-dasharray:none;stroke-opacity:1" />
          <path
             sodipodi:nodetypes="cc"
             inkscape:connector-curvature="0"
             id="path1054"
             d="m -616.32353,-699.38079 c -0.22764,29.756 4.90482,59.51201 11.75985,89.26801"
             style="fill:none;stroke:#000000;stroke-width:0.26458332px;stroke-linecap:butt;stroke-linejoin:miter;stroke-opacity:1" />
          <path
             sodipodi:nodetypes="cc"
             inkscape:connector-curvature="0"
             id="path1056"
             d="m -571.95677,-678.53377 c -7.42524,41.15326 -14.11252,46.1466 -20.84702,53.45391"
             style="fill:none;stroke:#000000;stroke-width:0.26458332px;stroke-linecap:butt;stroke-linejoin:miter;stroke-opacity:1" />
          <path
             sodipodi:nodetypes="cccc"
             inkscape:connector-curvature="0"
             id="path1058"
             d="m -428.9676,-625.61437 -10.4235,5.87991 c -8.46123,0.23633 -16.2853,-1.91665 -21.9161,-12.29442 3.6558,-3.44347 7.9179,-11.13109 12.58066,-21.62331"
             style="fill:none;stroke:#000000;stroke-width:0.26458332px;stroke-linecap:butt;stroke-linejoin:miter;stroke-opacity:1" />
          <path
             sodipodi:nodetypes="ccccc"
             inkscape:connector-curvature="0"
             id="path1060"
             d="m -461.3072,-632.02888 c -13.35078,16.618 -22.40032,32.00707 -20.84702,44.36676 6.25542,19.37897 15.13127,24.78233 25.65789,21.38156 5.11544,-7.65575 10.5104,-17.26811 14.96708,-20.31248 -5.90592,-11.55627 -0.71576,-22.25899 2.13815,-33.14142"
             style="fill:none;stroke:#000000;stroke-width:0.26458332px;stroke-linecap:butt;stroke-linejoin:miter;stroke-opacity:1" />
          <path
             sodipodi:nodetypes="cc"
             inkscape:connector-curvature="0"
             id="path1062"
             d="m -518.50287,-646.46142 c -3.16259,4.03116 -5.03312,6.12423 -5.3454,5.87994"
             style="fill:none;stroke:#000000;stroke-width:0.26458332px;stroke-linecap:butt;stroke-linejoin:miter;stroke-opacity:1" />
        </g>
        <path
           style="fill:none;stroke:#000000;stroke-width:0.26458332px;stroke-linecap:butt;stroke-linejoin:miter;stroke-opacity:1"
           d="m -439.58631,-644.91665 c -4.40972,6.30871 -12.52362,8.55834 -16.93334,6.80357"
           id="path1090"
           inkscape:connector-curvature="0"
           sodipodi:nodetypes="cc" />
        <path
           style="fill:none;stroke:#000000;stroke-width:0.26458332px;stroke-linecap:butt;stroke-linejoin:miter;stroke-opacity:1"
           d="m -424.46725,-598.42558 c -5.68733,1.73287 -11.37467,1.48069 -17.062,11.83254"
           id="path1092"
           inkscape:connector-curvature="0"
           sodipodi:nodetypes="cc" />
      </g>
    </g>
  </g>
</svg>
